<svg id="Laag_1" data-name="Laag 1" xmlns="http://www.w3.org/2000/svg" xmlns:xlink="http://www.w3.org/1999/xlink" viewBox="0 0 84 84"><defs><style>.cls-1{fill:none;}.cls-2{clip-path:url(#clip-path);}.cls-3{fill:#06cb79;}</style><clipPath id="clip-path" transform="translate(-919.52 -491.38)"><path id="Path_2" data-name="Path 2" class="cls-1" d="M1016.2,479H906l4.8,54.38H1021Z"/></clipPath></defs><g class="cls-2"><g id="Path_1" data-name="Path 1"><path class="cls-1" d="M961.52,575.38a42,42,0,1,1,42-42A42,42,0,0,1,961.52,575.38Z" transform="translate(-919.52 -491.38)"/><path class="cls-3" d="M961.52,562.38a29,29,0,1,0-29-29,29,29,0,0,0,29,29m0,13a42,42,0,1,1,42-42A42,42,0,0,1,961.52,575.38Z" transform="translate(-919.52 -491.38)"/></g></g></svg>